<svg xmlns="http://www.w3.org/2000/svg" width="2500" height="843" viewBox="0 0 2500 843">
  <rect width="2500" height="843" fill="#f7f5ef"/>
  <rect x="0" y="0" width="833" height="843" fill="#145c63"/>
  <rect x="833" y="0" width="833" height="843" fill="#1f7880"/>
  <rect x="1666" y="0" width="834" height="843" fill="#245260"/>
  <path d="M0 8H2500" stroke="#f4c95d" stroke-width="16"/>
  <g fill="none" stroke="#fff" stroke-width="30" stroke-linecap="round" stroke-linejoin="round">
    <path d="M315 235h205v250H315zM355 190h125v45M355 305h125M355 370h125"/>
    <path d="M1080 225h310v260h-310zM1140 225v-55M1330 225v-55M1080 305h310M1150 375l55 55 110-120"/>
    <path d="M1973 220l110-55 110 55v105c0 100-55 160-110 195-55-35-110-95-110-195zM2030 330l40 40 70-85"/>
  </g>
  <g fill="#fff" font-family="PingFang TC, Noto Sans TC, sans-serif" text-anchor="middle">
    <text x="416" y="650" font-size="96" font-weight="700">申請補助</text>
    <text x="1249" y="650" font-size="96" font-weight="700">查詢進度</text>
    <text x="2083" y="650" font-size="96" font-weight="700">AI資安專區</text>
  </g>
  <path d="M833 0v843M1666 0v843" stroke="#fff" stroke-opacity=".45" stroke-width="4"/>
</svg>
